<?xml version="1.0" encoding="utf-8"?>
<!-- Generator: Adobe Illustrator 16.0.0, SVG Export Plug-In . SVG Version: 6.00 Build 0)  -->
<!DOCTYPE svg PUBLIC "-//W3C//DTD SVG 1.1//EN" "http://www.w3.org/Graphics/SVG/1.1/DTD/svg11.dtd">
<svg version="1.1" id="Layer_1" xmlns="http://www.w3.org/2000/svg" xmlns:xlink="http://www.w3.org/1999/xlink" x="0px" y="0px"
	 width="546.5px" height="420.001px" viewBox="123 8 546.5 420.001" enable-background="new 123 8 546.5 420.001"
	 xml:space="preserve">
<path id="cap" fill="#FFFFFF" d="M654.885,155.662L419.361,248.74c-15.086,5.68-31.136,5.68-46.225,0l-171.238-67.674
	c-7.313,12.51-9.409,25.211-10.177,41.929c7.94,6.123,13.253,17.269,13.253,30.005c0,13.072-5.599,24.462-13.889,30.473
	l13.832,134.638c0.538,5.232-2.647,9.891-6.774,9.891h-40.987c-4.123,0-7.312-4.65-6.773-9.891l13.831-134.638
	c-8.29-6.011-13.889-17.401-13.889-30.473c0-13.162,5.675-24.621,14.06-30.599c0.809-19.634,3.393-36.347,10.376-52.06
	l-37.146-14.68c-19.534-7.438-19.44-42.92,0-50.323L373.137,12.26c15.089-5.68,31.139-5.68,46.225,0l235.525,93.078
	C674.418,112.777,674.324,148.258,654.885,155.662L654.885,155.662z M427.42,282.184l-0.176,0.069l-0.18,0.064
	c-20.119,7.572-41.514,7.572-61.63,0l-0.18-0.064l-0.176-0.069l-128.868-50.936L225.469,323c0,38.66,76.461,70,170.781,70
	c94.319,0,170.781-31.34,170.781-70l-10.745-91.75L427.42,282.184z"/>
</svg>
